<svg width="427" height="402" viewBox="0 0 427 402" fill="none" xmlns="http://www.w3.org/2000/svg">
<path fill-rule="evenodd" clip-rule="evenodd" d="M179.68 85.697C215.249 75.104 244.807 40.3257 281.266 47.2609C318.987 54.4361 345.904 88.379 365.95 121.129C385.601 153.234 401.772 191.818 391.998 228.169C382.715 262.692 343.97 277.604 317.433 301.557C296 320.903 279.067 345.33 251.771 354.743C223.173 364.605 193.08 359.7 163.24 354.73C125.576 348.458 75.4363 355.257 56.3356 322.194C37.0211 288.762 76.7963 250.268 80.698 211.855C84.2933 176.458 56.1541 135.754 78.116 107.762C100.038 79.822 145.644 95.8335 179.68 85.697Z" fill="#ECDA9B" fill-opacity="0.13"/>
<g clip-path="url(#clip0)">
<path d="M164.824 146.546C163.123 154.643 150.766 255.073 154.807 279.046C158.847 303.02 224.725 353.296 227.609 354.174C230.97 351.712 235.918 343.643 235.918 343.643C235.918 343.643 187.614 287.807 186.714 285.566C185.813 283.326 197.275 153.972 197.275 153.972L164.824 146.546Z" fill="#172E68"/>
<path d="M243.495 164.845L194.21 365.417H177.604L194.431 156.179L243.495 164.845Z" fill="#30D2EF"/>
<path d="M208.489 50.007C215.293 50.007 250.783 51.154 257.196 63.6172C263.61 76.0804 257.566 133.687 253.579 135.921C251.428 137.122 250.843 135.955 250.218 138.396C249.593 140.838 243.495 164.845 243.495 164.845C239.623 164.953 183.164 156.467 164.837 146.546C164.945 143.789 165.832 136.619 165.832 136.069C163.398 137.061 160.454 137.269 159.64 136.069C152.494 125.262 163.156 68.9231 170.8 57.5869C174.061 52.7237 197.571 50.0405 208.489 50.007Z" fill="#FBDC8E"/>
<path d="M231.858 137.511C233.525 137.511 247.879 147.573 246.648 152.516C247.657 148.545 250.83 136.277 250.83 136.277C249.465 136.491 233.048 137.511 231.858 137.511Z" fill="#1F161E"/>
<path d="M217.276 56.5807C217.276 58.7674 199.991 58.7674 199.991 56.5807V34.4448H217.276V56.5807Z" fill="#F8CDBA"/>
<path d="M207.353 39.6836C208.697 39.6836 217.276 43.4668 217.276 45.5731V34.4448C215.138 34.4448 207.353 39.6836 207.353 39.6836Z" fill="#1F161E"/>
<path d="M204.993 41.3002C214.279 41.3002 221.807 33.7892 221.807 24.5239C221.807 15.2586 214.279 7.74757 204.993 7.74757C195.707 7.74757 188.179 15.2586 188.179 24.5239C188.179 33.7892 195.707 41.3002 204.993 41.3002Z" fill="#F8CDBA"/>
<path d="M199.306 0C190.673 0 185.288 5.40652 185.288 12.3357C185.288 18.0978 186.693 21.3578 188.341 22.1828C189.383 16.5885 191.648 13.9993 193.524 12.8858C194.976 13.9993 197.477 16.6958 200.812 17.5276C204.146 18.3594 212.825 18.1984 219.837 23.2829C222.123 21.2035 224.416 18.5002 224.416 15.314C224.416 12.1278 223.004 8.12991 214.694 5.82241C209.215 4.29973 208.455 0 199.306 0Z" fill="#1F161E"/>
<path d="M189.282 29.5078C190.908 29.5078 192.226 28.8231 192.226 27.9784C192.226 27.1338 190.908 26.449 189.282 26.449C187.656 26.449 186.337 27.1338 186.337 27.9784C186.337 28.8231 187.656 29.5078 189.282 29.5078Z" fill="#FA9E9F"/>
<path d="M207.803 29.5078C209.43 29.5078 210.748 28.8231 210.748 27.9784C210.748 27.1338 209.43 26.449 207.803 26.449C206.177 26.449 204.859 27.1338 204.859 27.9784C204.859 28.8231 206.177 29.5078 207.803 29.5078Z" fill="#FA9E9F"/>
<path d="M196.475 24.819C195.924 25.6038 193.114 28.8974 196.079 30.2256" stroke="#1F161E" stroke-miterlimit="10" stroke-linecap="round"/>
<path d="M202.015 34.0624C202.896 34.0624 204.267 32.9624 204.986 31.9763" stroke="#1F161E" stroke-miterlimit="10" stroke-linecap="round"/>
<path d="M220.536 30.3329C222.683 30.3329 224.422 28.597 224.422 26.4557C224.422 24.3145 222.683 22.5786 220.536 22.5786C218.39 22.5786 216.651 24.3145 216.651 26.4557C216.651 28.597 218.39 30.3329 220.536 30.3329Z" fill="#F8CDBA"/>
<path d="M232.248 83.0163C231.945 86.719 230.762 105.018 231.206 107.426C225.565 109.385 173.893 133.828 164.985 136.491" stroke="#1F161E" stroke-miterlimit="10" stroke-linecap="round"/>
<path d="M172.259 77.2408C171.076 81.3863 167.069 100.202 169.886 108.942" stroke="#1F161E" stroke-miterlimit="10" stroke-linecap="round"/>
<path d="M185.443 127.945C188.132 129.83 213.914 141.214 249.546 136.921" stroke="#1F161E" stroke-miterlimit="10" stroke-linecap="round"/>
<path d="M182.982 108.942C184.71 109.217 179.076 104.73 175.883 106.4C172.69 108.07 168.387 115.63 169.268 117.387C169.386 117.705 169.575 117.992 169.819 118.228C170.064 118.463 170.358 118.641 170.681 118.748C171.003 118.854 171.346 118.888 171.683 118.845C172.02 118.802 172.343 118.685 172.629 118.501C173.496 117.937 179.95 108.459 182.982 108.942Z" fill="#F8CDBA"/>
<path d="M235.347 344.502C236.268 345.172 244.436 350.686 244.504 354.161C244.571 357.635 236.914 369.153 235.347 369.482C233.781 369.81 232.698 368.509 232.698 366.181C232.698 363.854 235.616 359.775 235.226 357.964C234.836 356.153 231.065 352.839 229.128 352.779" fill="#1F161E"/>
<path d="M192.636 365.417C192.636 367.013 193.564 377.035 191.702 377.967C189.84 378.899 169.375 379.449 168.447 378.524C167.52 377.598 166.955 375.646 167.775 375.089C168.595 374.533 176.515 372.95 177.584 372.212C178.653 371.474 180.145 367.516 179.601 365.417" fill="#1F161E"/>
</g>
<circle cx="95.5" cy="38.5" r="26.5" fill="#67A2AE" fill-opacity="0.24"/>
<circle cx="292.5" cy="232.5" r="19.5" fill="#F8CDBA"/>
<defs>
<clipPath id="clip0">
<rect width="106" height="379" fill="white" transform="translate(154)"/>
</clipPath>
</defs>
</svg>
