    <svg
      xmlns="http://www.w3.org/2000/svg"
      width="177"
      height="49"
      fill="none"
      viewBox="0 0 177 49"
    >
      <path
        fill="#30D2EF"
        d="M20.257 4.243L4.243 20.257a6 6 0 000 8.486l16.014 16.014a6 6 0 008.485 0l16.015-16.014a6 6 0 000-8.486L28.743 4.243a6 6 0 00-8.486 0z"
      ></path>
      <path
        stroke="#07345E"
        d="M36.49 24.52a12.02 12.02 0 01-.09 1.444c.151.031.3.075.443.131a12.325 12.325 0 00-.7-5.944c-.12.1-.247.191-.381.271.481 1.313.728 2.7.728 4.098v0zM21.75 12.92a2.79 2.79 0 01-.024-.349c0-.039 0-.076.006-.114a12.373 12.373 0 00-5.607 2.993c.14.068.273.147.4.237a11.907 11.907 0 015.225-2.767zM12.621 24.521c-.001-1.417.25-2.823.743-4.15a2.835 2.835 0 01-.373-.292 12.3 12.3 0 00-.7 6.159c.143-.06.291-.106.442-.141a12.023 12.023 0 01-.112-1.576v0zM27.361 12.92a11.91 11.91 0 015.269 2.813c.124-.093.255-.176.393-.248a12.372 12.372 0 00-5.644-3.028c0 .038.006.075.006.114 0 .117-.009.233-.024.349zM14.749 31.32a2.775 2.775 0 01-.42.188A12.477 12.477 0 0019 35.592c.042-.148.09-.293.142-.436a11.983 11.983 0 01-4.393-3.836zM29.916 35.183c.05.144.1.29.134.44a12.476 12.476 0 004.812-4.234 2.836 2.836 0 01-.414-.191 11.983 11.983 0 01-4.532 3.985v0z"
      ></path>
      <path
        stroke="#07345E"
        d="M32.283 16.039c.107-.112.224-.214.348-.307a11.907 11.907 0 00-5.269-2.813c-.019.152-.05.301-.093.448a11.463 11.463 0 015.014 2.672v0zM29.748 34.753c.061.14.118.284.169.431a11.984 11.984 0 004.532-3.985 2.815 2.815 0 01-.382-.259 11.554 11.554 0 01-4.319 3.813v0zM13.077 24.52c-.001-1.34.234-2.671.694-3.93a2.827 2.827 0 01-.407-.221 11.89 11.89 0 00-.636 5.727c.149-.035.3-.058.452-.069-.067-.5-.102-1.003-.103-1.507v0zM21.843 13.365a2.807 2.807 0 01-.093-.448 11.9 11.9 0 00-5.221 2.768c.128.09.248.19.359.3a11.463 11.463 0 014.955-2.62zM15.131 31.063c-.12.096-.248.182-.383.257a11.98 11.98 0 004.393 3.836c.053-.145.112-.287.177-.426a11.556 11.556 0 01-4.187-3.667v0zM36.034 24.52c-.001.466-.03.931-.088 1.394.153.005.304.022.454.051a11.886 11.886 0 00-.632-5.542 2.76 2.76 0 01-.415.2c.452 1.25.682 2.568.681 3.897v0zM13.38 31.218a2.37 2.37 0 01-1.019-4.513 12.05 12.05 0 01-.075-.469 2.827 2.827 0 002.043 5.271c-.088-.129-.173-.26-.257-.393a2.363 2.363 0 01-.692.104v0z"
      ></path>
      <path
        stroke="#07345E"
        d="M16.209 28.846a2.832 2.832 0 00-2.829-2.829c-.068 0-.134.005-.2.01.02.152.043.3.069.453.044 0 .087-.007.132-.007a2.372 2.372 0 011.5 4.21c.082.128.165.255.252.379a2.825 2.825 0 001.076-2.216zM14.501 30.94a2.344 2.344 0 01-.424.176c.083.132.168.264.256.393.145-.051.285-.114.42-.188a5.696 5.696 0 01-.252-.381zM12.796 26.549a12.63 12.63 0 01-.068-.453 2.806 2.806 0 00-.442.141c.022.157.048.313.075.468.14-.066.285-.118.435-.156v0z"
      ></path>
      <path
        stroke="#07345E"
        d="M14.88 30.684c-.12.098-.248.183-.384.256.082.13.166.256.253.381.134-.075.262-.161.383-.257-.087-.126-.17-.252-.252-.38zM13.18 26.027c-.152.01-.303.034-.452.069.02.152.043.3.068.453.148-.037.3-.06.452-.069-.026-.15-.049-.301-.068-.453zM13.377 30.762a1.916 1.916 0 01-.928-3.592 10.318 10.318 0 01-.091-.465 2.371 2.371 0 001.711 4.409c-.085-.133-.167-.27-.246-.408a1.916 1.916 0 01-.446.056v0z"
      ></path>
      <path
        stroke="#07345E"
        d="M15.753 28.846a2.374 2.374 0 00-2.372-2.373c-.045 0-.088 0-.132.006.026.152.054.3.086.452h.046a1.914 1.914 0 011.258 3.358c.078.133.159.267.242.4a2.366 2.366 0 00.872-1.843v0zM13.826 30.707c.08.137.161.273.246.408a2.35 2.35 0 00.424-.176c-.083-.129-.163-.259-.24-.391-.136.07-.28.124-.43.159zM12.88 26.999c-.031-.149-.058-.3-.084-.45a2.35 2.35 0 00-.435.157c.028.156.058.311.092.465a1.9 1.9 0 01.427-.172v0z"
      ></path>
      <path
        stroke="#07345E"
        d="M14.638 30.288a1.928 1.928 0 01-.382.26c.077.133.157.264.24.391.136-.073.265-.159.384-.256-.083-.13-.164-.262-.242-.395zM13.335 26.932c-.032-.149-.06-.3-.086-.452a2.381 2.381 0 00-.452.069c.026.15.053.3.084.449.148-.04.3-.062.454-.066v0zM36.844 26.096c-.02.155-.041.309-.067.462a2.374 2.374 0 01-1.662 4.439 14.57 14.57 0 01-.252.393 2.826 2.826 0 101.981-5.294v0zM33.467 28.738a2.373 2.373 0 012.373-2.373h.044c.024-.15.045-.3.063-.453-.036 0-.071-.006-.107-.006a2.827 2.827 0 00-1.773 5.031c.085-.126.167-.255.248-.385a2.368 2.368 0 01-.848-1.814v0z"
      ></path>
      <path
        stroke="#07345E"
        d="M34.695 30.815c-.08.129-.161.257-.246.383.133.075.271.139.414.191.087-.13.17-.26.252-.393a2.378 2.378 0 01-.42-.181zM36.339 26.42c.15.031.297.078.438.139.025-.153.047-.307.067-.462a2.836 2.836 0 00-.443-.13c-.018.15-.038.301-.062.452z"
      ></path>
      <path
        stroke="#07345E"
        d="M35.886 26.367c.153.002.305.02.455.051.024-.15.044-.3.062-.454a2.805 2.805 0 00-.454-.051l-.063.454zM34.067 30.939c.12.097.248.183.382.259.085-.125.166-.254.246-.383a2.362 2.362 0 01-.38-.261c-.081.13-.162.259-.248.385zM37.756 28.738a1.909 1.909 0 01-2.4 1.851c-.077.137-.156.274-.238.408a2.372 2.372 0 001.662-4.439c-.026.156-.052.312-.084.466a1.918 1.918 0 011.06 1.714v0z"
      ></path>
      <path
        stroke="#07345E"
        d="M33.923 28.737a1.917 1.917 0 011.878-1.914c.031-.151.057-.3.082-.456h-.044a2.372 2.372 0 00-1.525 4.19c.082-.132.16-.266.237-.4a1.91 1.91 0 01-.628-1.42v0zM34.928 30.422c-.076.132-.153.264-.233.393.134.074.274.134.42.181.082-.134.161-.27.238-.408a1.903 1.903 0 01-.425-.166zM36.258 26.868c.15.034.296.086.434.155.032-.154.058-.31.084-.466a2.36 2.36 0 00-.438-.139l-.08.45z"
      ></path>
      <path
        stroke="#07345E"
        d="M35.802 26.823h.038c.14 0 .281.016.419.047.03-.15.057-.3.08-.45a2.392 2.392 0 00-.455-.051c-.025.151-.051.303-.082.454zM34.552 30.152c-.077.135-.155.27-.237.4.118.099.245.186.38.261.08-.129.158-.26.233-.393a1.906 1.906 0 01-.376-.268v0zM12.526 17.996a2.368 2.368 0 013.244-2.205c.116-.116.234-.229.354-.34a2.824 2.824 0 00-3.134 4.628c.059-.153.12-.305.185-.456a2.362 2.362 0 01-.649-1.627v0zM17.728 17.996a2.819 2.819 0 00-.84-2.009c-.113.1-.223.207-.332.313a2.37 2.37 0 01-2.618 3.865c-.058.141-.115.282-.167.425a2.825 2.825 0 003.957-2.593v-.001z"
      ></path>
      <path
        stroke="#07345E"
        d="M13.535 19.935a2.357 2.357 0 01-.36-.312c-.065.15-.126.3-.185.456.116.107.24.204.373.29.055-.146.112-.29.172-.434zM15.771 15.791a2.4 2.4 0 01.422.217c.11-.108.222-.216.337-.321-.127-.09-.26-.17-.4-.238a6.83 6.83 0 00-.359.342z"
      ></path>
      <path
        stroke="#07345E"
        d="M16.89 15.987a2.86 2.86 0 00-.36-.3c-.114.1-.225.212-.336.321.13.085.253.182.364.291.108-.105.218-.21.332-.312zM13.938 20.164a2.358 2.358 0 01-.4-.229c-.06.143-.117.288-.171.433.13.084.265.158.407.22.05-.143.107-.284.164-.424zM12.984 17.996a1.911 1.911 0 012.44-1.841c.113-.124.229-.245.347-.364a2.37 2.37 0 00-2.6 3.832c.067-.155.135-.308.208-.459a1.9 1.9 0 01-.395-1.168v0z"
      ></path>
      <path
        stroke="#07345E"
        d="M17.272 17.996a2.364 2.364 0 00-.716-1.7c-.109.106-.216.215-.321.326a1.914 1.914 0 01-2.114 3.12c-.063.138-.125.278-.183.42a2.371 2.371 0 003.334-2.169v.003zM13.383 19.164c-.073.15-.141.3-.208.459.11.116.23.22.36.312.06-.144.124-.287.19-.428a1.932 1.932 0 01-.342-.343v0zM15.866 16.345c.107-.114.216-.226.327-.336a2.335 2.335 0 00-.422-.218c-.118.119-.234.24-.347.364.155.044.303.108.442.19v0z"
      ></path>
      <path
        stroke="#07345E"
        d="M14.122 19.746a1.896 1.896 0 01-.4-.239c-.066.142-.13.284-.19.428.126.09.26.166.4.229.065-.14.126-.28.19-.418zM15.865 16.345c.134.078.258.173.37.281.105-.11.212-.22.321-.326a2.394 2.394 0 00-.364-.291c-.111.109-.22.222-.327.336zM33.371 15.823a2.37 2.37 0 012.6 3.877c.063.149.121.3.179.452a2.826 2.826 0 00-3.127-4.666c.118.11.235.222.348.337zM34.32 20.826a2.8 2.8 0 001.033-.2 12.001 12.001 0 00-.165-.424 2.37 2.37 0 01-2.577-3.849 10.81 10.81 0 00-.329-.314 2.826 2.826 0 002.039 4.786l-.001.001z"
      ></path>
      <path
        stroke="#07345E"
        d="M35.599 19.993c.058.142.116.285.169.429.134-.08.262-.17.381-.271-.057-.152-.116-.3-.179-.452-.114.11-.238.208-.371.294v0zM32.964 16.051c.128-.09.264-.166.407-.229-.114-.115-.23-.227-.348-.337a2.844 2.844 0 00-.393.248c.113.104.225.21.334.318zM32.282 16.04c.112.1.221.207.329.314.107-.111.225-.212.352-.3-.11-.108-.22-.214-.334-.318a2.84 2.84 0 00-.347.304z"
      ></path>
      <path
        stroke="#07345E"
        d="M35.353 20.628c.144-.055.282-.122.415-.2a12.374 12.374 0 00-.169-.43c-.13.083-.267.153-.411.21.057.136.113.277.165.42zM34.321 16.08a1.914 1.914 0 011.446 3.169c.07.149.139.3.2.45a2.371 2.371 0 00-2.6-3.876c.116.117.23.236.34.358.198-.067.405-.101.614-.101v0zM34.321 20.369c.297 0 .592-.057.868-.166a12.083 12.083 0 00-.182-.42 1.913 1.913 0 01-2.077-3.1c-.1-.111-.21-.221-.319-.329a2.37 2.37 0 001.709 4.016l.001-.001z"
      ></path>
      <path
        stroke="#07345E"
        d="M33.286 16.386c.133-.086.277-.155.427-.205a12.843 12.843 0 00-.341-.358c-.143.063-.28.14-.407.229.109.109.215.221.32.334zM35.414 19.568c.064.141.126.282.185.425.133-.085.258-.184.372-.294-.065-.152-.134-.3-.2-.45-.105.12-.225.228-.357.319v0z"
      ></path>
      <path
        stroke="#07345E"
        d="M32.611 16.353c.109.107.214.217.319.329.106-.114.226-.215.356-.3a11.341 11.341 0 00-.322-.335c-.127.09-.246.193-.353.306v0zM35.007 19.782c.063.139.124.278.182.42.144-.056.281-.127.411-.21a13.306 13.306 0 00-.185-.425c-.127.088-.264.16-.408.215v0zM24.555 10.198a2.372 2.372 0 012.362 2.16c.155.03.309.063.462.099a2.825 2.825 0 00-5.647 0c.153-.036.306-.07.461-.1a2.372 2.372 0 012.362-2.159v0zM24.556 15.4a2.833 2.833 0 002.713-2.032c-.147-.036-.3-.07-.445-.1a2.374 2.374 0 01-4.536 0c-.149.03-.3.065-.445.1a2.833 2.833 0 002.713 2.032z"
      ></path>
      <path
        stroke="#07345E"
        d="M21.75 12.921c.148-.036.3-.07.446-.1a2.409 2.409 0 01-.013-.249c0-.072 0-.143.011-.214-.155.03-.309.064-.462.1 0 .038-.006.076-.006.114 0 .117.009.233.024.349v0zM26.928 12.572c0 .083-.004.166-.013.249.15.03.3.065.446.1a2.85 2.85 0 00.024-.349c0-.038 0-.076-.006-.114-.153-.036-.306-.07-.461-.1.006.07.01.144.01.214z"
      ></path>
      <path
        stroke="#07345E"
        d="M22.288 13.268a2.353 2.353 0 01-.091-.448c-.15.03-.3.065-.446.1.019.152.05.302.093.448.147-.035.295-.07.444-.1zM27.268 13.369c.043-.146.074-.296.093-.448-.148-.036-.3-.07-.446-.1a2.35 2.35 0 01-.091.448c.149.029.297.064.444.1zM24.555 10.655a1.917 1.917 0 011.89 1.618c.158.024.315.054.471.085a2.372 2.372 0 00-4.724 0c.156-.03.313-.06.471-.085a1.916 1.916 0 011.892-1.618v0z"
      ></path>
      <path
        stroke="#07345E"
        d="M24.555 14.943a2.374 2.374 0 002.268-1.676 9.357 9.357 0 00-.456-.081 1.914 1.914 0 01-3.626 0c-.153.024-.3.051-.455.081a2.373 2.373 0 002.269 1.676zM26.472 12.572c0 .057 0 .112-.008.168.15.025.3.051.452.081.009-.083.013-.166.013-.249 0-.072 0-.143-.011-.214-.156-.03-.313-.06-.471-.084.016.099.024.198.025.298zM22.64 12.572c0-.1.01-.2.026-.3-.158.024-.315.054-.471.084a2.144 2.144 0 00.002.463c.15-.03.3-.056.452-.081a1.512 1.512 0 01-.009-.166z"
      ></path>
      <path
        stroke="#07345E"
        d="M26.368 13.186c.153.024.3.05.455.082a2.35 2.35 0 00.09-.448c-.15-.03-.299-.056-.451-.081a1.891 1.891 0 01-.094.447v0zM22.742 13.186a1.9 1.9 0 01-.095-.448c-.152.025-.3.051-.452.081.016.152.046.302.09.448.157-.029.305-.056.457-.081zM24.556 19.833a4.674 4.674 0 100 9.348 4.674 4.674 0 000-9.348zm0 8.891a4.218 4.218 0 110-8.435 4.218 4.218 0 010 8.435v0z"
      ></path>
      <path
        stroke="#07345E"
        d="M24.555 20.289a4.218 4.218 0 100 8.435 4.218 4.218 0 000-8.435v0zm0 7.978a3.76 3.76 0 11.002-7.52 3.76 3.76 0 01-.002 7.52v0zM29.665 35.97l.485 2.263h-.466l.02.093.893-.191-.485-2.263a6.62 6.62 0 00-.06-.252l-.422.2.035.15zM19.352 36.064c.02-.092.042-.182.066-.272-.141-.065-.28-.131-.418-.2a12.92 12.92 0 00-.1.377l-.479 2.236.893.191.021-.1h-.467l.484-2.232zM24.137 31.368a5.765 5.765 0 00-4.818 3.363c.133.067.27.133.409.2a5.248 5.248 0 019.6.022l.414-.2a5.675 5.675 0 00-5.605-3.385v0z"
      ></path>
      <path
        stroke="#07345E"
        d="M29.501 35.382c.049.144.091.29.128.439.142-.067.283-.133.422-.2-.039-.15-.085-.3-.134-.439-.137.07-.276.136-.416.2zM19.554 35.357a64.176 64.176 0 01-.412-.2c-.053.143-.1.288-.142.436l.418.2a5.88 5.88 0 01.136-.436zM29.334 34.952c.061.14.117.283.167.429.14-.067.279-.133.416-.2a5.408 5.408 0 00-.169-.431 9.88 9.88 0 01-.414.202z"
      ></path>
      <path
        stroke="#07345E"
        d="M19.32 34.73c-.067.14-.126.282-.177.427.136.069.273.137.412.2.052-.145.11-.287.174-.426a12.203 12.203 0 01-.41-.201zM19.845 35.98a13.69 13.69 0 01-.426-.188c-.024.09-.047.18-.066.272l-.479 2.236h.467l.458-2.137c.013-.065.031-.124.046-.184zM29.664 35.972l-.036-.15c-.14.067-.283.128-.426.183 0 .021.01.041.015.063l.465 2.17h.466l-.484-2.266zM24.168 31.822a5.293 5.293 0 00-4.439 3.109c.138.064.278.128.419.187a4.845 4.845 0 014.049-2.84 4.778 4.778 0 014.72 2.857c.14-.058.279-.119.416-.182a5.263 5.263 0 00-5.165-3.131v0z"
      ></path>
      <path
        stroke="#07345E"
        d="M19.554 35.357a5.363 5.363 0 00-.136.435c.141.064.283.128.427.187.037-.148.081-.293.131-.435-.142-.06-.282-.122-.422-.187zM29.203 36.004c.143-.059.285-.12.426-.183a5.243 5.243 0 00-.128-.439c-.139.063-.278.125-.419.183.046.143.086.29.121.439z"
      ></path>
      <path
        stroke="#07345E"
        d="M20.148 35.118a12.108 12.108 0 01-.42-.186 3.83 3.83 0 00-.173.426c.139.065.279.128.421.187.052-.147.109-.289.172-.427zM28.918 35.135c.06.14.115.282.163.429.14-.058.28-.119.419-.183a5.042 5.042 0 00-.167-.429c-.14.064-.275.125-.415.183z"
      ></path>
      <path
        fill="#07345E"
        d="M53 26.397c0-.783.22-1.484.661-2.103.449-.62 1.063-1.11 1.844-1.47.781-.36 1.674-.54 2.68-.54.317 0 .65.02.997.059.356.039.711.09 1.067.152-.255-1.277-1.171-1.915-2.749-1.915-.935 0-1.875.356-2.818 1.07l-1.149-2.857a11.676 11.676 0 012.378-.87 9.518 9.518 0 012.227-.282c1.121 0 2.092.216 2.911.647a4.6 4.6 0 011.926 1.81c.456.775.684 1.688.684 2.738v6.793h-2.807l-.22-1.257a4.624 4.624 0 01-1.59 1.093c-.618.266-1.298.4-2.04.4-1.176 0-2.139-.322-2.889-.964-.742-.643-1.113-1.477-1.113-2.504zm3.34-.775c0 .391.147.709.441.952.302.235.696.352 1.183.352.665 0 1.222-.203 1.67-.611.457-.407.685-.909.685-1.504v-.235a6.205 6.205 0 00-.928-.224 5.768 5.768 0 00-.963-.082c-.657 0-1.171.118-1.542.353a1.123 1.123 0 00-.546.999zM66.222 17.888h3.352v6.3c0 .877.182 1.555.545 2.033.364.478.886.717 1.566.717.727 0 1.315-.259 1.763-.776.456-.517.684-1.179.684-1.986h.012v-6.3h3.34V29.63h-2.922l-.14-1.445a4.834 4.834 0 01-1.635 1.245 4.96 4.96 0 01-2.088.435c-1.469 0-2.582-.482-3.34-1.445-.758-.964-1.137-2.382-1.137-4.255v-6.276zM79.816 17.876h1.914v-2.938h3.34v2.938h2.818v2.939H85.07v4.325c0 .556.174.995.522 1.316.356.314.804.47 1.345.47.402 0 .816-.09 1.241-.27v2.774a5.879 5.879 0 01-2.169.434c-1.376 0-2.435-.372-3.178-1.116-.734-.752-1.101-1.826-1.101-3.22v-4.713h-1.914v-2.939zM89.93 23.753c0-1.175.266-2.221.8-3.138a5.85 5.85 0 012.204-2.174c.935-.533 1.999-.8 3.19-.8 1.19 0 2.25.267 3.177.8a5.772 5.772 0 012.193 2.174c.541.917.811 1.963.811 3.138 0 1.175-.27 2.225-.811 3.15a5.885 5.885 0 01-2.193 2.174c-.927.525-1.987.787-3.178.787-1.19 0-2.254-.262-3.19-.787a5.965 5.965 0 01-2.203-2.174c-.534-.925-.8-1.975-.8-3.15zm3.247 0c0 .909.279 1.665.835 2.268.557.604 1.26.905 2.111.905.85 0 1.555-.301 2.111-.905.557-.603.835-1.36.835-2.268 0-.909-.278-1.665-.835-2.268-.556-.604-1.26-.905-2.11-.905-.851 0-1.555.301-2.112.905-.556.603-.835 1.359-.835 2.268zM104.521 29.63V17.875h2.923l.162 1.681c.843-1.277 2.003-1.916 3.479-1.916a5.51 5.51 0 011.555.235l-.464 2.927a4.184 4.184 0 00-1.322-.223c-.897 0-1.62.337-2.169 1.01-.549.666-.824 1.618-.824 2.856v5.183h-3.34zM116.247 24.764c.209.65.591 1.179 1.148 1.586.565.408 1.222.611 1.972.611.804 0 1.469-.129 1.995-.387a5.885 5.885 0 001.45-1.023l2.018 2.445c-.897.713-1.786 1.202-2.668 1.469-.874.266-1.713.4-2.517.4-1.283 0-2.416-.263-3.398-.788a5.942 5.942 0 01-2.308-2.186c-.557-.932-.835-1.99-.835-3.173 0-1.168.266-2.206.8-3.115a5.811 5.811 0 012.18-2.162c.928-.533 1.98-.8 3.155-.8 1.168 0 2.204.263 3.109.788a5.758 5.758 0 012.157 2.162c.526.917.789 1.967.789 3.15v1.023h-9.047zm5.614-1.88c-.163-.69-.495-1.247-.998-1.67-.503-.423-1.106-.634-1.809-.634-.712 0-1.33.215-1.856.646a3.02 3.02 0 00-1.021 1.657h5.684zM137.681 28.125a5.97 5.97 0 01-2.03 1.281 6.94 6.94 0 01-2.551.458c-1.23 0-2.328-.262-3.294-.787a6.046 6.046 0 01-2.274-2.174c-.557-.925-.835-1.975-.835-3.15 0-1.175.278-2.221.835-3.138a5.93 5.93 0 012.274-2.174c.966-.533 2.064-.8 3.294-.8.92 0 1.77.153 2.551.459a5.97 5.97 0 012.03 1.28l-2.355 2.246c-.556-.698-1.299-1.046-2.226-1.046-.851 0-1.555.301-2.111.905-.557.603-.836 1.359-.836 2.268 0 .909.279 1.665.836 2.268.556.604 1.26.905 2.111.905.927 0 1.67-.348 2.226-1.046l2.355 2.245zM139.896 29.63V17.875h2.923l.162 1.681c.843-1.277 2.003-1.916 3.48-1.916.503 0 1.021.079 1.554.235l-.464 2.927a4.18 4.18 0 00-1.322-.223c-.897 0-1.62.337-2.169 1.01-.549.666-.823 1.618-.823 2.856v5.183h-3.341zM149.059 17.888h3.352v6.3c0 .877.182 1.555.545 2.033.364.478.886.717 1.566.717.727 0 1.315-.259 1.763-.776.456-.517.684-1.179.684-1.986h.012v-6.3h3.34V29.63h-2.923l-.139-1.445a4.831 4.831 0 01-1.635 1.245 4.96 4.96 0 01-2.088.435c-1.469 0-2.582-.482-3.34-1.445-.758-.964-1.137-2.382-1.137-4.255v-6.276zM162.977 13.88c0-.564.17-1.018.511-1.363.34-.345.788-.517 1.345-.517.557 0 1.005.172 1.346.517.34.345.51.8.51 1.364 0 .564-.17 1.018-.51 1.363-.341.345-.789.517-1.346.517s-1.005-.172-1.345-.517c-.341-.345-.511-.8-.511-1.364zm.186 15.75V17.875h3.34V29.63h-3.34zM168.637 17.876h1.914v-2.938h3.341v2.938h2.818v2.939h-2.818v4.325c0 .556.174.995.522 1.316.355.314.804.47 1.345.47.402 0 .816-.09 1.241-.27v2.774a5.882 5.882 0 01-2.169.434c-1.376 0-2.436-.372-3.178-1.116-.734-.752-1.102-1.826-1.102-3.22v-4.713h-1.914v-2.939z"
      ></path>
    </svg>