<svg width="49" height="49" viewBox="0 0 49 49" fill="none" xmlns="http://www.w3.org/2000/svg">
<path d="M20.2572 4.2428L4.24264 20.2574C1.89949 22.6005 1.89949 26.3995 4.24264 28.7426L20.2572 44.7572C22.6003 47.1003 26.3993 47.1003 28.7425 44.7572L44.757 28.7426C47.1002 26.3995 47.1002 22.6005 44.757 20.2574L28.7425 4.24281C26.3993 1.89966 22.6003 1.89966 20.2572 4.2428Z" fill="#30D2EF"/>
<path d="M36.4899 24.5199C36.4889 25.0026 36.4589 25.4849 36.4 25.964C36.551 25.9954 36.6992 26.0392 36.843 26.095C36.9095 25.5726 36.9429 25.0465 36.9429 24.5199C36.943 23.0272 36.6719 21.5469 36.1429 20.151C36.0237 20.2517 35.8962 20.3424 35.762 20.422C36.2433 21.7347 36.4897 23.1218 36.4899 24.5199V24.5199Z" stroke="#07345E"/>
<path d="M21.75 12.92C21.7347 12.8043 21.7267 12.6877 21.726 12.571C21.726 12.532 21.726 12.495 21.732 12.457C19.6343 12.9494 17.7015 13.9811 16.125 15.45C16.2646 15.5179 16.3984 15.5971 16.525 15.687C18.0063 14.34 19.8034 13.3884 21.75 12.92Z" stroke="#07345E"/>
<path d="M12.621 24.521C12.6197 23.1042 12.8713 21.6985 13.364 20.37C13.2318 20.2836 13.107 20.1862 12.991 20.079C12.2357 22.0386 11.9947 24.1589 12.291 26.2379C12.4342 26.1789 12.582 26.1317 12.733 26.097C12.6612 25.5746 12.6237 25.0482 12.621 24.521V24.521Z" stroke="#07345E"/>
<path d="M27.361 12.92C29.3277 13.3949 31.1411 14.363 32.6299 15.733C32.754 15.6398 32.8854 15.5569 33.0229 15.485C31.44 13.9978 29.4935 12.9534 27.379 12.457C27.379 12.495 27.3849 12.532 27.3849 12.571C27.3841 12.6877 27.3761 12.8043 27.361 12.92Z" stroke="#07345E"/>
<path d="M14.749 31.32C14.6144 31.3942 14.4739 31.457 14.329 31.508C15.5173 33.2409 17.124 34.6458 19 35.5921C19.042 35.4441 19.0893 35.2987 19.142 35.156C17.3841 34.2586 15.8751 32.9409 14.749 31.32Z" stroke="#07345E"/>
<path d="M29.916 35.183C29.966 35.327 30.016 35.473 30.05 35.623C31.9953 34.6548 33.6541 33.1953 34.862 31.389C34.7191 31.3365 34.5806 31.2726 34.448 31.1979C33.302 32.8911 31.7419 34.2631 29.916 35.183V35.183Z" stroke="#07345E"/>
<path d="M32.283 16.0389C32.3904 15.9273 32.5069 15.8246 32.631 15.7319C31.1422 14.3618 29.3289 13.3937 27.3621 12.9189C27.3434 13.0706 27.3123 13.2204 27.269 13.3669C29.1381 13.8227 30.8624 14.7416 32.283 16.0389V16.0389Z" stroke="#07345E"/>
<path d="M29.748 34.753C29.8094 34.8937 29.8657 35.0374 29.9171 35.184C31.7429 34.264 33.303 32.8922 34.449 31.199C34.3148 31.1233 34.1871 31.0366 34.067 30.94C32.9724 32.5553 31.4866 33.8671 29.748 34.753V34.753Z" stroke="#07345E"/>
<path d="M13.0769 24.52C13.0758 23.1791 13.3107 21.8485 13.7709 20.5891C13.6295 20.527 13.4934 20.4533 13.364 20.369C12.6856 22.1969 12.4671 24.1637 12.7279 26.096C12.8765 26.0608 13.0277 26.0377 13.18 26.027C13.1128 25.5275 13.0783 25.024 13.0769 24.52V24.52Z" stroke="#07345E"/>
<path d="M21.843 13.365C21.7998 13.2184 21.7687 13.0686 21.7499 12.917C19.8046 13.386 18.0088 14.338 16.5289 15.6849C16.6566 15.7749 16.7767 15.8753 16.8879 15.985C18.2974 14.7151 19.9999 13.8148 21.843 13.365Z" stroke="#07345E"/>
<path d="M15.131 31.063C15.0107 31.1591 14.8826 31.245 14.748 31.3199C15.8741 32.9409 17.3831 34.2587 19.1411 35.156C19.1944 35.0107 19.2534 34.8686 19.3181 34.73C17.6445 33.867 16.2071 32.6082 15.131 31.063V31.063Z" stroke="#07345E"/>
<path d="M36.034 24.5201C36.0329 24.9861 36.0035 25.4515 35.946 25.914C36.0985 25.9186 36.2503 25.9357 36.4 25.965C36.6319 24.0937 36.4153 22.1941 35.768 20.423C35.6355 20.5011 35.4967 20.5679 35.353 20.623C35.8049 21.8725 36.0353 23.1913 36.034 24.5201V24.5201Z" stroke="#07345E"/>
<path d="M13.38 31.218C12.8415 31.2186 12.3189 31.0357 11.8981 30.6997C11.4773 30.3637 11.1834 29.8945 11.0648 29.3693C10.9462 28.844 11.0099 28.2939 11.2455 27.8097C11.4811 27.3255 11.8745 26.9358 12.361 26.705C12.333 26.549 12.308 26.394 12.286 26.236C11.6001 26.5162 11.0516 27.0545 10.7586 27.735C10.4655 28.4155 10.4514 29.1839 10.7191 29.8748C10.9869 30.5656 11.5152 31.1237 12.1903 31.429C12.8654 31.7342 13.6334 31.7622 14.329 31.507C14.241 31.378 14.156 31.247 14.072 31.114C13.8478 31.1828 13.6145 31.2179 13.38 31.218V31.218Z" stroke="#07345E"/>
<path d="M16.209 28.8459C16.2083 28.0959 15.9099 27.3768 15.3796 26.8464C14.8492 26.3161 14.1301 26.0178 13.3801 26.017C13.3121 26.017 13.2461 26.022 13.1801 26.027C13.2001 26.179 13.223 26.327 13.249 26.48C13.293 26.48 13.336 26.473 13.381 26.473C13.8707 26.4729 14.3484 26.6242 14.7485 26.9064C15.1487 27.1885 15.4518 27.5877 15.6161 28.049C15.7804 28.5102 15.798 29.0109 15.6664 29.4825C15.5348 29.9542 15.2604 30.3735 14.881 30.683C14.963 30.811 15.0461 30.938 15.1331 31.062C15.4682 30.7979 15.7391 30.4613 15.9254 30.0775C16.1118 29.6937 16.2087 29.2726 16.209 28.8459Z" stroke="#07345E"/>
<path d="M14.5009 30.94C14.3657 31.0124 14.2236 31.0714 14.0769 31.116C14.1599 31.248 14.2449 31.38 14.3329 31.509C14.4777 31.4576 14.6182 31.3948 14.7529 31.321C14.6629 31.196 14.5789 31.069 14.5009 30.94Z" stroke="#07345E"/>
<path d="M12.796 26.549C12.7707 26.399 12.748 26.248 12.728 26.096C12.577 26.1307 12.4292 26.1779 12.286 26.237C12.308 26.394 12.334 26.55 12.361 26.705C12.5005 26.6388 12.6462 26.5866 12.796 26.549V26.549Z" stroke="#07345E"/>
<path d="M14.8799 30.6841C14.7605 30.7816 14.632 30.8673 14.496 30.94C14.578 31.069 14.662 31.196 14.749 31.321C14.8834 31.2458 15.0115 31.1598 15.132 31.0639C15.045 30.9379 14.9619 30.8121 14.8799 30.6841Z" stroke="#07345E"/>
<path d="M13.18 26.027C13.0277 26.0378 12.8766 26.0608 12.728 26.0959C12.748 26.2479 12.7711 26.396 12.7961 26.549C12.9441 26.5115 13.0955 26.4884 13.248 26.48C13.222 26.33 13.1994 26.179 13.18 26.027Z" stroke="#07345E"/>
<path d="M13.377 30.762C12.9519 30.7627 12.5386 30.622 12.2023 30.3621C11.866 30.1021 11.6258 29.7376 11.5195 29.326C11.4131 28.9145 11.4468 28.4792 11.615 28.0889C11.7833 27.6985 12.0767 27.3753 12.449 27.17C12.415 27.016 12.385 26.861 12.358 26.705C11.817 26.9618 11.3932 27.4139 11.1718 27.9703C10.9504 28.5268 10.9477 29.1464 11.1644 29.7047C11.3811 30.263 11.801 30.7187 12.3398 30.9801C12.8786 31.2415 13.4963 31.2894 14.069 31.114C13.9843 30.9807 13.9023 30.8447 13.823 30.7061C13.677 30.7422 13.5273 30.7609 13.377 30.762V30.762Z" stroke="#07345E"/>
<path d="M15.753 28.846C15.7531 28.5344 15.6919 28.2258 15.5728 27.9379C15.4536 27.65 15.2789 27.3885 15.0586 27.1682C14.8383 26.9478 14.5768 26.7729 14.2889 26.6536C14.0011 26.5344 13.6926 26.473 13.381 26.473C13.336 26.473 13.293 26.4729 13.249 26.4789C13.275 26.6309 13.303 26.779 13.335 26.931H13.381C13.771 26.9306 14.1518 27.0495 14.4725 27.2715C14.7931 27.4936 15.0382 27.8083 15.175 28.1735C15.3119 28.5388 15.3339 28.9371 15.2381 29.3151C15.1423 29.6932 14.9332 30.033 14.639 30.289C14.717 30.4223 14.7976 30.5557 14.881 30.689C15.1545 30.4662 15.3748 30.185 15.5256 29.8661C15.6765 29.5473 15.7542 29.1988 15.753 28.846V28.846Z" stroke="#07345E"/>
<path d="M13.826 30.707C13.9054 30.8443 13.9874 30.9803 14.072 31.115C14.2188 31.0703 14.3608 31.0114 14.496 30.9391C14.4134 30.8104 14.3334 30.6799 14.256 30.5479C14.1196 30.6181 13.9753 30.6715 13.826 30.707Z" stroke="#07345E"/>
<path d="M12.88 26.999C12.849 26.85 12.822 26.6991 12.796 26.5491C12.6462 26.587 12.5005 26.6396 12.361 26.7061C12.389 26.8621 12.419 27.017 12.453 27.171C12.5878 27.0966 12.7312 27.0388 12.88 26.999V26.999Z" stroke="#07345E"/>
<path d="M14.638 30.288C14.5216 30.3897 14.3933 30.477 14.256 30.548C14.3333 30.6813 14.4133 30.8117 14.496 30.939C14.6319 30.8662 14.7606 30.7805 14.88 30.683C14.7967 30.553 14.716 30.4213 14.638 30.288Z" stroke="#07345E"/>
<path d="M13.335 26.9321C13.303 26.7831 13.275 26.632 13.249 26.48C13.0965 26.4885 12.9451 26.5115 12.797 26.549C12.823 26.699 12.85 26.849 12.881 26.998C13.0292 26.9579 13.1816 26.9359 13.335 26.9321V26.9321Z" stroke="#07345E"/>
<path d="M36.8439 26.096C36.8239 26.251 36.8029 26.405 36.7769 26.558C37.3354 26.7999 37.7795 27.2472 38.0175 27.8073C38.2556 28.3675 38.2693 28.9975 38.0559 29.5675C37.8425 30.1374 37.4183 30.6037 36.871 30.8697C36.3236 31.1358 35.6949 31.1814 35.1149 30.997C35.0329 31.13 34.9489 31.26 34.8629 31.39C35.5649 31.6527 36.3426 31.6258 37.0247 31.3152C37.7069 31.0045 38.2377 30.4355 38.5004 29.7335C38.7631 29.0315 38.7362 28.2538 38.4255 27.5716C38.1149 26.8895 37.546 26.3587 36.8439 26.096V26.096Z" stroke="#07345E"/>
<path d="M33.4669 28.7381C33.4669 28.1087 33.717 27.5051 34.162 27.0601C34.607 26.6151 35.2106 26.365 35.8399 26.365H35.8839C35.9079 26.215 35.929 26.065 35.947 25.912C35.911 25.912 35.8759 25.906 35.8399 25.906C35.2544 25.9055 34.6832 26.0868 34.2051 26.4248C33.727 26.7629 33.3657 27.2411 33.1711 27.7934C32.9765 28.3456 32.9581 28.9447 33.1186 29.5078C33.2791 30.071 33.6105 30.5704 34.067 30.937C34.152 30.811 34.234 30.682 34.315 30.552C34.0496 30.33 33.8362 30.0525 33.6897 29.739C33.5432 29.4256 33.4671 29.084 33.4669 28.7381V28.7381Z" stroke="#07345E"/>
<path d="M34.695 30.8149C34.615 30.9439 34.534 31.072 34.449 31.198C34.5816 31.2727 34.7201 31.3366 34.863 31.389C34.9496 31.2597 35.0337 31.1286 35.115 30.996C34.9695 30.9493 34.8289 30.8886 34.695 30.8149Z" stroke="#07345E"/>
<path d="M36.339 26.419C36.4892 26.4514 36.6359 26.4982 36.777 26.5589C36.802 26.4059 36.824 26.252 36.844 26.097C36.7001 26.0414 36.552 25.9976 36.401 25.966C36.383 26.117 36.363 26.268 36.339 26.419Z" stroke="#07345E"/>
<path d="M35.886 26.367C36.0389 26.3693 36.1913 26.3864 36.341 26.418C36.365 26.268 36.385 26.118 36.403 25.964C36.2533 25.9347 36.1014 25.9176 35.949 25.913C35.928 26.066 35.907 26.217 35.886 26.367Z" stroke="#07345E"/>
<path d="M34.067 30.939C34.1871 31.0356 34.3149 31.1222 34.449 31.1979C34.534 31.0729 34.615 30.944 34.695 30.815C34.5601 30.7406 34.4329 30.6532 34.315 30.554C34.234 30.684 34.153 30.813 34.067 30.939Z" stroke="#07345E"/>
<path d="M37.756 28.7379C37.7572 29.0311 37.6908 29.3206 37.562 29.5839C37.4331 29.8472 37.2454 30.0774 37.0133 30.2564C36.7812 30.4354 36.5109 30.5586 36.2235 30.6162C35.9361 30.6739 35.6392 30.6646 35.356 30.589C35.279 30.726 35.2 30.863 35.118 30.997C35.6997 31.1877 36.3325 31.1462 36.8842 30.8811C37.4359 30.6161 37.8638 30.148 38.0784 29.5747C38.2931 29.0015 38.2778 28.3676 38.0358 27.8053C37.7938 27.2431 37.3439 26.7962 36.78 26.558C36.754 26.714 36.728 26.87 36.696 27.024C37.0144 27.1831 37.2822 27.4278 37.4694 27.7305C37.6566 28.0332 37.7559 28.382 37.756 28.7379V28.7379Z" stroke="#07345E"/>
<path d="M33.923 28.737C33.9237 28.2358 34.1207 27.7548 34.4717 27.3971C34.8227 27.0393 35.2999 26.8332 35.801 26.823C35.832 26.672 35.858 26.523 35.883 26.367H35.839C35.352 26.3667 34.8767 26.5164 34.4776 26.7956C34.0786 27.0749 33.7752 27.47 33.6086 27.9277C33.442 28.3854 33.4204 28.8832 33.5466 29.3536C33.6728 29.824 33.9407 30.2442 34.314 30.557C34.396 30.425 34.474 30.291 34.551 30.157C34.3527 29.9774 34.1944 29.7583 34.0862 29.5136C33.978 29.269 33.9224 29.0045 33.923 28.737V28.737Z" stroke="#07345E"/>
<path d="M34.9279 30.422C34.8519 30.554 34.7749 30.686 34.6949 30.815C34.8288 30.8886 34.9694 30.9493 35.1149 30.996C35.1969 30.862 35.276 30.725 35.353 30.588C35.2051 30.55 35.0624 30.4942 34.9279 30.422Z" stroke="#07345E"/>
<path d="M36.2579 26.868C36.4083 26.9019 36.5541 26.954 36.692 27.023C36.724 26.869 36.7499 26.713 36.7759 26.557C36.6348 26.4965 36.4881 26.4499 36.338 26.418C36.3113 26.5693 36.2846 26.7193 36.2579 26.868Z" stroke="#07345E"/>
<path d="M35.802 26.823H35.84C35.981 26.8234 36.1215 26.8391 36.259 26.87C36.289 26.7207 36.3157 26.5706 36.3391 26.42C36.1894 26.3884 36.037 26.3714 35.884 26.369C35.859 26.52 35.833 26.672 35.802 26.823Z" stroke="#07345E"/>
<path d="M34.5519 30.152C34.4749 30.287 34.3969 30.4219 34.3149 30.5519C34.4329 30.6509 34.5602 30.7384 34.6949 30.813C34.7749 30.684 34.8529 30.553 34.9279 30.42C34.7922 30.3462 34.666 30.2563 34.5519 30.152V30.152Z" stroke="#07345E"/>
<path d="M12.526 17.996C12.5254 17.609 12.6196 17.2278 12.8005 16.8856C12.9813 16.5435 13.2432 16.2508 13.5633 16.0332C13.8833 15.8157 14.2518 15.6798 14.6365 15.6376C15.0212 15.5954 15.4103 15.6481 15.77 15.791C15.886 15.675 16.004 15.5621 16.124 15.4511C15.5132 15.1553 14.8163 15.0893 14.1609 15.2653C13.5055 15.4412 12.9354 15.8473 12.5549 16.4092C12.1744 16.9711 12.009 17.6513 12.0889 18.3252C12.1688 18.9991 12.4886 19.6216 12.99 20.079C13.049 19.926 13.11 19.7741 13.175 19.6231C12.7581 19.184 12.5258 18.6015 12.526 17.996V17.996Z" stroke="#07345E"/>
<path d="M17.728 17.996C17.7282 17.6222 17.654 17.2521 17.5098 16.9072C17.3656 16.5623 17.1542 16.2494 16.888 15.987C16.775 16.087 16.665 16.194 16.556 16.3C16.9548 16.6882 17.2042 17.2044 17.2607 17.7581C17.3172 18.3118 17.1772 18.8677 16.8651 19.3286C16.5529 19.7894 16.0886 20.1256 15.5535 20.2785C15.0183 20.4314 14.4465 20.3913 13.938 20.165C13.88 20.306 13.823 20.447 13.771 20.59C14.2013 20.778 14.6717 20.8557 15.1396 20.8162C15.6075 20.7767 16.0582 20.6212 16.4509 20.3638C16.8437 20.1065 17.1661 19.7554 17.389 19.3421C17.612 18.9289 17.7285 18.4666 17.728 17.997V17.996Z" stroke="#07345E"/>
<path d="M13.535 19.935C13.4048 19.8434 13.2841 19.7389 13.175 19.623C13.11 19.773 13.049 19.923 12.99 20.079C13.106 20.1863 13.2307 20.2835 13.363 20.3699C13.4176 20.2233 13.475 20.0783 13.535 19.935Z" stroke="#07345E"/>
<path d="M15.771 15.791C15.9185 15.8492 16.0598 15.9219 16.193 16.008C16.303 15.9 16.415 15.792 16.53 15.687C16.4034 15.5968 16.2696 15.5172 16.1299 15.4489C16.0049 15.5619 15.887 15.67 15.771 15.791Z" stroke="#07345E"/>
<path d="M16.89 15.9869C16.7787 15.8773 16.6586 15.777 16.5309 15.687C16.4159 15.787 16.305 15.8991 16.194 16.0081C16.3246 16.0928 16.4465 16.1902 16.558 16.299C16.666 16.194 16.776 16.0889 16.89 15.9869Z" stroke="#07345E"/>
<path d="M13.938 20.164C13.7975 20.1009 13.6635 20.0242 13.538 19.935C13.478 20.0783 13.4209 20.2226 13.3669 20.368C13.4963 20.4523 13.6325 20.526 13.774 20.588C13.824 20.445 13.881 20.304 13.938 20.164Z" stroke="#07345E"/>
<path d="M12.984 17.996C12.9833 17.6995 13.0515 17.4068 13.1834 17.1413C13.3154 16.8757 13.5072 16.6445 13.744 16.4659C13.9807 16.2873 14.2557 16.1662 14.5473 16.1122C14.8389 16.0583 15.139 16.0729 15.424 16.1549C15.5373 16.0309 15.653 15.9096 15.771 15.7909C15.2691 15.5898 14.7135 15.5664 14.1964 15.7245C13.6794 15.8826 13.2319 16.2129 12.9284 16.6603C12.6248 17.1077 12.4833 17.6455 12.5274 18.1844C12.5716 18.7233 12.7986 19.2309 13.171 19.623C13.238 19.468 13.306 19.315 13.379 19.164C13.1211 18.8294 12.9822 18.4184 12.984 17.996V17.996Z" stroke="#07345E"/>
<path d="M17.272 17.996C17.2727 17.6791 17.2096 17.3653 17.0866 17.0733C16.9636 16.7812 16.7832 16.517 16.556 16.2961C16.447 16.4021 16.34 16.511 16.235 16.622C16.5571 16.9354 16.7586 17.3522 16.8043 17.7993C16.85 18.2465 16.7369 18.6953 16.4848 19.0674C16.2327 19.4395 15.8577 19.711 15.4255 19.8344C14.9933 19.9577 14.5315 19.925 14.121 19.742C14.058 19.88 13.996 20.02 13.938 20.161C14.2991 20.3215 14.6945 20.3892 15.0884 20.3579C15.4824 20.3267 15.8623 20.1975 16.1935 19.9821C16.5248 19.7667 16.7969 19.4718 16.9853 19.1244C17.1736 18.777 17.2722 18.3881 17.272 17.993V17.996Z" stroke="#07345E"/>
<path d="M13.3829 19.1639C13.3099 19.3149 13.2419 19.4639 13.1749 19.6229C13.2842 19.7387 13.4048 19.8433 13.535 19.9349C13.595 19.7909 13.659 19.648 13.725 19.507C13.597 19.4074 13.4821 19.2922 13.3829 19.1639V19.1639Z" stroke="#07345E"/>
<path d="M15.8659 16.345C15.9729 16.231 16.0819 16.119 16.1929 16.009C16.06 15.9222 15.9186 15.8491 15.7709 15.791C15.6529 15.9096 15.5373 16.031 15.424 16.155C15.5788 16.1991 15.7273 16.263 15.8659 16.345V16.345Z" stroke="#07345E"/>
<path d="M14.1219 19.746C13.9793 19.6831 13.845 19.6028 13.722 19.507C13.656 19.649 13.592 19.791 13.532 19.935C13.6575 20.0242 13.7915 20.1009 13.9319 20.164C13.9969 20.024 14.0579 19.884 14.1219 19.746Z" stroke="#07345E"/>
<path d="M15.865 16.345C15.9993 16.4233 16.1235 16.5176 16.235 16.626C16.3397 16.5153 16.4466 16.4067 16.556 16.3C16.4444 16.1914 16.3225 16.0939 16.192 16.009C16.081 16.118 15.972 16.231 15.865 16.345Z" stroke="#07345E"/>
<path d="M33.3709 15.823C33.8804 15.5991 34.4524 15.5616 34.9868 15.717C35.5212 15.8724 35.9839 16.2109 36.2938 16.6731C36.6038 17.1353 36.7413 17.6918 36.6823 18.2452C36.6232 18.7986 36.3714 19.3135 35.9709 19.6999C36.0339 19.8489 36.092 20 36.15 20.152C36.6807 19.7032 37.0274 19.0745 37.1239 18.3862C37.2204 17.6979 37.0598 16.9981 36.6729 16.4208C36.2859 15.8434 35.6997 15.4288 35.0264 15.2563C34.353 15.0839 33.6398 15.1656 33.0229 15.4859C33.1409 15.5959 33.2579 15.708 33.3709 15.823Z" stroke="#07345E"/>
<path d="M34.32 20.826C34.6738 20.8252 35.0244 20.7573 35.353 20.6259C35.301 20.4829 35.245 20.342 35.188 20.202C34.6846 20.4008 34.1284 20.4214 33.6117 20.2602C33.0951 20.0991 32.6491 19.766 32.348 19.3163C32.0469 18.8665 31.9088 18.3273 31.9567 17.7882C32.0045 17.2491 32.2354 16.7427 32.611 16.353C32.503 16.246 32.394 16.141 32.282 16.039C31.8973 16.4386 31.6387 16.9425 31.5384 17.488C31.4381 18.0335 31.5006 18.5964 31.718 19.1067C31.9354 19.6169 32.2981 20.052 32.7609 20.3575C33.2238 20.6631 33.7664 20.8257 34.321 20.825L34.32 20.826Z" stroke="#07345E"/>
<path d="M35.599 19.993C35.657 20.135 35.715 20.278 35.768 20.422C35.9023 20.3423 36.0298 20.2517 36.149 20.151C36.092 19.999 36.033 19.851 35.97 19.699C35.8564 19.809 35.7321 19.9075 35.599 19.993V19.993Z" stroke="#07345E"/>
<path d="M32.964 16.051C33.0918 15.9615 33.2281 15.8848 33.371 15.822C33.257 15.707 33.141 15.595 33.023 15.485C32.8854 15.5567 32.754 15.6397 32.63 15.733C32.7433 15.837 32.8547 15.943 32.964 16.051Z" stroke="#07345E"/>
<path d="M32.282 16.04C32.394 16.14 32.503 16.2471 32.611 16.3541C32.7183 16.2429 32.8361 16.1423 32.963 16.054C32.8536 15.946 32.7423 15.84 32.629 15.736C32.5053 15.8278 32.3892 15.9294 32.282 16.04Z" stroke="#07345E"/>
<path d="M35.353 20.6279C35.4966 20.5726 35.6353 20.5058 35.768 20.428C35.715 20.283 35.657 20.14 35.599 19.998C35.4691 20.0812 35.3315 20.1515 35.188 20.208C35.245 20.344 35.301 20.4849 35.353 20.6279Z" stroke="#07345E"/>
<path d="M34.321 16.08C34.6883 16.0795 35.0481 16.1846 35.3572 16.383C35.6664 16.5814 35.9119 16.8647 36.0644 17.1989C36.2169 17.5332 36.27 17.9041 36.2172 18.2677C36.1645 18.6312 36.0082 18.9719 35.767 19.249C35.837 19.398 35.906 19.5491 35.967 19.6991C36.3667 19.3125 36.6179 18.7976 36.6765 18.2446C36.7352 17.6916 36.5976 17.1356 36.2878 16.6738C35.978 16.212 35.5157 15.8737 34.9818 15.7182C34.4479 15.5627 33.8763 15.5997 33.3669 15.823C33.4829 15.94 33.5969 16.059 33.7079 16.181C33.9054 16.1141 34.1125 16.08 34.321 16.08V16.08Z" stroke="#07345E"/>
<path d="M34.321 20.369C34.6182 20.3687 34.9127 20.3124 35.189 20.203C35.131 20.061 35.07 19.922 35.007 19.783C34.6021 19.9389 34.1561 19.9526 33.7424 19.8217C33.3287 19.6907 32.9718 19.4231 32.7303 19.0626C32.4888 18.7021 32.377 18.2702 32.4133 17.8378C32.4496 17.4054 32.6318 16.9982 32.93 16.683C32.83 16.572 32.72 16.462 32.611 16.354C32.2882 16.6891 32.0711 17.1117 31.9868 17.5693C31.9024 18.0269 31.9546 18.4992 32.1368 18.9274C32.319 19.3555 32.6232 19.7207 33.0114 19.9772C33.3996 20.2337 33.8547 20.3703 34.32 20.37L34.321 20.369Z" stroke="#07345E"/>
<path d="M33.2859 16.386C33.4192 16.3002 33.5627 16.2313 33.713 16.181C33.602 16.059 33.487 15.94 33.372 15.823C33.2291 15.8857 33.0927 15.9624 32.965 16.052C33.074 16.161 33.1799 16.273 33.2859 16.386Z" stroke="#07345E"/>
<path d="M35.4141 19.568C35.4781 19.709 35.5401 19.85 35.5991 19.993C35.7325 19.9075 35.8571 19.8091 35.9711 19.699C35.9061 19.547 35.8371 19.3991 35.7711 19.2491C35.6658 19.3698 35.5458 19.4769 35.4141 19.568V19.568Z" stroke="#07345E"/>
<path d="M32.611 16.353C32.72 16.46 32.825 16.57 32.93 16.682C33.0359 16.5678 33.1555 16.4671 33.286 16.382C33.18 16.268 33.074 16.156 32.964 16.047C32.8365 16.1371 32.7183 16.2396 32.611 16.353V16.353Z" stroke="#07345E"/>
<path d="M35.007 19.782C35.07 19.921 35.131 20.06 35.189 20.202C35.3325 20.1456 35.4702 20.0753 35.6 19.992C35.541 19.849 35.479 19.708 35.415 19.567C35.2882 19.6549 35.1512 19.7272 35.007 19.782V19.782Z" stroke="#07345E"/>
<path d="M24.5549 10.198C25.1471 10.1981 25.7178 10.4197 26.1548 10.8192C26.5919 11.2187 26.8638 11.7673 26.9169 12.3571C27.0719 12.3871 27.226 12.421 27.379 12.457C27.3551 11.7241 27.0471 11.0292 26.5202 10.5192C25.9933 10.0092 25.2887 9.724 24.5554 9.724C23.8221 9.724 23.1176 10.0092 22.5907 10.5192C22.0638 11.0292 21.7558 11.7241 21.7319 12.457C21.8849 12.421 22.0379 12.3871 22.1929 12.3571C22.2461 11.7673 22.5179 11.2187 22.955 10.8192C23.3921 10.4197 23.9628 10.1981 24.5549 10.198V10.198Z" stroke="#07345E"/>
<path d="M24.556 15.4001C25.1669 15.3991 25.761 15.2007 26.2499 14.8345C26.7388 14.4683 27.0963 13.9539 27.269 13.368C27.122 13.332 26.969 13.298 26.824 13.268C26.6748 13.753 26.374 14.1773 25.9658 14.4788C25.5576 14.7802 25.0635 14.9429 24.556 14.9429C24.0486 14.9429 23.5545 14.7802 23.1463 14.4788C22.7381 14.1773 22.4373 13.753 22.288 13.268C22.139 13.298 21.988 13.333 21.843 13.368C22.0157 13.9539 22.3732 14.4683 22.8621 14.8345C23.351 15.2007 23.9452 15.3991 24.556 15.4001Z" stroke="#07345E"/>
<path d="M21.7501 12.9209C21.8981 12.8849 22.05 12.851 22.196 12.821C22.1874 12.7382 22.1831 12.6551 22.183 12.5719C22.183 12.4999 22.183 12.4289 22.194 12.3579C22.039 12.3879 21.8851 12.422 21.7321 12.458C21.7321 12.496 21.7261 12.5339 21.7261 12.5719C21.7268 12.6886 21.7348 12.8052 21.7501 12.9209V12.9209Z" stroke="#07345E"/>
<path d="M26.928 12.5719C26.9281 12.6551 26.9237 12.7382 26.915 12.821C27.065 12.851 27.215 12.8859 27.361 12.9209C27.3761 12.8052 27.3841 12.6886 27.385 12.5719C27.385 12.5339 27.385 12.496 27.379 12.458C27.226 12.422 27.073 12.3879 26.918 12.3579C26.924 12.4279 26.928 12.5019 26.928 12.5719Z" stroke="#07345E"/>
<path d="M22.288 13.268C22.2432 13.122 22.2127 12.972 22.197 12.82C22.047 12.85 21.897 12.885 21.751 12.92C21.7698 13.0716 21.8009 13.2215 21.844 13.368C21.991 13.333 22.139 13.298 22.288 13.268Z" stroke="#07345E"/>
<path d="M27.2679 13.369C27.3111 13.2224 27.3422 13.0726 27.361 12.921C27.213 12.885 27.061 12.851 26.915 12.821C26.8993 12.973 26.8688 13.123 26.824 13.269C26.973 13.298 27.1209 13.333 27.2679 13.369Z" stroke="#07345E"/>
<path d="M24.555 10.655C25.011 10.6558 25.4518 10.8191 25.7982 11.1157C26.1446 11.4122 26.3739 11.8226 26.445 12.273C26.603 12.297 26.76 12.327 26.916 12.358C26.8644 11.7672 26.5932 11.2171 26.1559 10.8164C25.7187 10.4157 25.1471 10.1933 24.554 10.1933C23.9609 10.1933 23.3893 10.4157 22.9521 10.8164C22.5148 11.2171 22.2436 11.7672 22.192 12.358C22.348 12.328 22.505 12.298 22.663 12.273C22.7342 11.8223 22.9638 11.4117 23.3106 11.1151C23.6574 10.8185 24.0987 10.6554 24.555 10.655V10.655Z" stroke="#07345E"/>
<path d="M24.555 14.943C25.0625 14.9428 25.5566 14.7799 25.9648 14.4783C26.373 14.1767 26.6738 13.7521 26.823 13.267C26.6723 13.2363 26.5203 13.2093 26.367 13.1859C26.2387 13.565 25.9948 13.8944 25.6696 14.1277C25.3443 14.361 24.9542 14.4865 24.554 14.4865C24.1537 14.4865 23.7636 14.361 23.4384 14.1277C23.1132 13.8944 22.8693 13.565 22.741 13.1859C22.588 13.2099 22.441 13.237 22.286 13.267C22.4351 13.7524 22.736 14.1771 23.1444 14.4788C23.5528 14.7805 24.0472 14.9432 24.555 14.943Z" stroke="#07345E"/>
<path d="M26.472 12.572C26.472 12.629 26.472 12.6839 26.464 12.7399C26.615 12.7649 26.764 12.791 26.916 12.821C26.9246 12.7383 26.929 12.6551 26.929 12.572C26.929 12.5 26.929 12.429 26.918 12.358C26.762 12.328 26.605 12.298 26.447 12.274C26.4631 12.3725 26.4715 12.4721 26.472 12.572Z" stroke="#07345E"/>
<path d="M22.64 12.572C22.6408 12.4714 22.6495 12.3712 22.666 12.272C22.508 12.296 22.3509 12.326 22.1949 12.356C22.1879 12.426 22.184 12.497 22.184 12.57C22.184 12.6532 22.1883 12.7363 22.197 12.819C22.347 12.789 22.4969 12.763 22.6489 12.738C22.6429 12.684 22.64 12.628 22.64 12.572Z" stroke="#07345E"/>
<path d="M26.368 13.186C26.521 13.21 26.668 13.2369 26.823 13.2679C26.8677 13.1219 26.8982 12.9719 26.914 12.8199C26.764 12.7899 26.614 12.764 26.462 12.739C26.4489 12.8913 26.4173 13.0414 26.368 13.186V13.186Z" stroke="#07345E"/>
<path d="M22.7419 13.186C22.6923 13.0411 22.6605 12.8907 22.647 12.738C22.495 12.763 22.3469 12.789 22.1949 12.819C22.2107 12.9709 22.2412 13.1209 22.2859 13.267C22.4419 13.238 22.5899 13.211 22.7419 13.186Z" stroke="#07345E"/>
<path d="M24.5559 19.833C23.6315 19.833 22.7277 20.1071 21.9591 20.6208C21.1904 21.1344 20.5914 21.8644 20.2377 22.7185C19.8839 23.5727 19.7914 24.5125 19.9718 25.4192C20.1523 26.3259 20.5975 27.1588 21.2513 27.8124C21.905 28.466 22.738 28.9111 23.6447 29.0913C24.5514 29.2716 25.4913 29.1788 26.3453 28.8249C27.1994 28.4709 27.9293 27.8717 28.4427 27.1029C28.9562 26.3342 29.2302 25.4305 29.23 24.506C29.2284 23.267 28.7354 22.0791 27.8592 21.203C26.9829 20.327 25.795 19.8344 24.5559 19.833ZM24.5559 28.724C23.7219 28.724 22.9066 28.4767 22.2131 28.0133C21.5196 27.55 20.9791 26.8913 20.66 26.1208C20.3408 25.3502 20.2572 24.5023 20.42 23.6842C20.5827 22.8662 20.9843 22.1149 21.5741 21.5252C22.1638 20.9354 22.9152 20.5337 23.7333 20.371C24.5513 20.2083 25.3992 20.2918 26.1697 20.611C26.9403 20.9302 27.5989 21.4706 28.0622 22.1641C28.5256 22.8576 28.7729 23.6729 28.7729 24.507C28.7729 25.6254 28.3287 26.698 27.5378 27.4888C26.747 28.2796 25.6744 28.724 24.5559 28.724V28.724Z" stroke="#07345E"/>
<path d="M24.555 20.2889C23.7209 20.2889 22.9056 20.5363 22.2121 20.9996C21.5187 21.463 20.9782 22.1217 20.659 22.8922C20.3398 23.6628 20.2563 24.5107 20.4191 25.3287C20.5818 26.1468 20.9833 26.8982 21.5731 27.4879C22.1629 28.0777 22.9143 28.4793 23.7323 28.642C24.5503 28.8047 25.3982 28.7212 26.1687 28.402C26.9393 28.0828 27.598 27.5424 28.0613 26.8489C28.5247 26.1554 28.772 25.34 28.772 24.506C28.772 23.3876 28.3277 22.315 27.5369 21.5242C26.746 20.7333 25.6734 20.2889 24.555 20.2889V20.2889ZM24.555 28.267C23.8114 28.2668 23.0846 28.0461 22.4664 27.6328C21.8482 27.2195 21.3664 26.6323 21.082 25.9452C20.7975 25.2581 20.7232 24.5021 20.8684 23.7728C21.0136 23.0435 21.3717 22.3736 21.8976 21.8479C22.4235 21.3222 23.0935 20.9642 23.8228 20.8192C24.5521 20.6742 25.3081 20.7487 25.9951 21.0333C26.6821 21.3179 27.2693 21.7998 27.6824 22.4181C28.0955 23.0364 28.316 23.7633 28.316 24.507C28.3147 25.5039 27.918 26.4597 27.2129 27.1646C26.5079 27.8694 25.552 28.2659 24.555 28.267V28.267Z" stroke="#07345E"/>
<path d="M29.665 35.9701L30.15 38.233H29.684L29.704 38.326L30.597 38.135L30.112 35.872C30.094 35.787 30.073 35.703 30.052 35.62C29.9127 35.6866 29.772 35.7534 29.63 35.82C29.641 35.871 29.654 35.9201 29.665 35.9701Z" stroke="#07345E"/>
<path d="M19.352 36.064C19.372 35.972 19.394 35.882 19.418 35.792C19.277 35.727 19.138 35.661 19 35.592C18.965 35.716 18.932 35.841 18.9 35.969L18.421 38.205L19.314 38.396L19.335 38.296H18.868L19.352 36.064Z" stroke="#07345E"/>
<path d="M24.137 31.3679C23.1061 31.4451 22.115 31.798 21.2674 32.3897C20.4198 32.9813 19.7468 33.7899 19.319 34.731C19.4523 34.7976 19.5886 34.8643 19.728 34.9309C20.1412 34.0017 20.8156 33.2126 21.669 32.6596C22.5224 32.1065 23.5181 31.8134 24.5351 31.8157C25.5521 31.818 26.5465 32.1158 27.3973 32.6727C28.2482 33.2297 28.9189 34.0219 29.3279 34.953C29.4673 34.8863 29.6053 34.8196 29.7419 34.7529C29.2717 33.6789 28.4804 32.7769 27.4767 32.1708C26.4731 31.5647 25.3064 31.2842 24.137 31.3679V31.3679Z" stroke="#07345E"/>
<path d="M29.501 35.382C29.55 35.526 29.592 35.672 29.629 35.821C29.771 35.7544 29.9116 35.6876 30.051 35.621C30.012 35.471 29.9659 35.321 29.9169 35.182C29.7796 35.2513 29.641 35.318 29.501 35.382Z" stroke="#07345E"/>
<path d="M19.554 35.3571C19.4153 35.2904 19.278 35.2236 19.142 35.157C19.0894 35.2996 19.042 35.445 19 35.593C19.138 35.6597 19.2774 35.7263 19.418 35.793C19.458 35.645 19.5033 35.4997 19.554 35.3571Z" stroke="#07345E"/>
<path d="M29.334 34.952C29.3953 35.092 29.451 35.235 29.501 35.381C29.641 35.3143 29.7797 35.2477 29.917 35.181C29.8663 35.0337 29.81 34.89 29.748 34.75C29.6113 34.8206 29.4733 34.888 29.334 34.952Z" stroke="#07345E"/>
<path d="M19.3199 34.73C19.2533 34.8693 19.1943 35.0116 19.1429 35.157C19.2789 35.226 19.4159 35.2939 19.5549 35.3569C19.6069 35.2116 19.6649 35.0697 19.7289 34.931C19.5909 34.8664 19.4546 34.7993 19.3199 34.73Z" stroke="#07345E"/>
<path d="M19.845 35.979C19.701 35.919 19.559 35.856 19.419 35.792C19.395 35.882 19.372 35.972 19.353 36.064L18.874 38.3H19.341L19.799 36.163C19.812 36.098 19.83 36.039 19.845 35.979Z" stroke="#07345E"/>
<path d="M29.664 35.972C29.653 35.922 29.6411 35.8719 29.6281 35.8219C29.4874 35.8886 29.3454 35.9497 29.202 36.005C29.202 36.026 29.212 36.046 29.217 36.068L29.682 38.2379H30.148L29.664 35.972Z" stroke="#07345E"/>
<path d="M24.168 31.822C23.2166 31.8921 22.3018 32.2181 21.5204 32.7654C20.7391 33.3126 20.1201 34.0609 19.729 34.931C19.867 34.995 20.007 35.059 20.148 35.118C20.5057 34.3247 21.0705 33.6424 21.783 33.1427C22.4954 32.643 23.3293 32.3443 24.197 32.2781C25.1826 32.2079 26.1656 32.445 27.0109 32.9567C27.8562 33.4683 28.5221 34.2293 28.917 35.135C29.057 35.077 29.196 35.0161 29.333 34.9531C28.8976 33.9641 28.1684 33.133 27.2444 32.5729C26.3203 32.0127 25.2462 31.7505 24.168 31.822V31.822Z" stroke="#07345E"/>
<path d="M19.554 35.3569C19.5026 35.4996 19.4573 35.6447 19.418 35.792C19.559 35.856 19.701 35.92 19.845 35.979C19.8823 35.831 19.926 35.6859 19.976 35.5439C19.834 35.4839 19.694 35.4219 19.554 35.3569Z" stroke="#07345E"/>
<path d="M29.203 36.0041C29.3463 35.9454 29.4884 35.8843 29.629 35.821C29.5924 35.6716 29.5497 35.5253 29.501 35.382C29.362 35.445 29.223 35.507 29.082 35.565C29.128 35.7083 29.1683 35.8547 29.203 36.0041Z" stroke="#07345E"/>
<path d="M20.1479 35.118C20.0069 35.059 19.8669 34.996 19.7289 34.932C19.6623 35.0706 19.6043 35.2127 19.5549 35.358C19.6939 35.423 19.834 35.486 19.976 35.545C20.028 35.398 20.0849 35.256 20.1479 35.118Z" stroke="#07345E"/>
<path d="M28.918 35.135C28.9786 35.2744 29.0329 35.4173 29.0809 35.564C29.2219 35.506 29.3619 35.445 29.4999 35.381C29.4506 35.235 29.3949 35.0921 29.3329 34.9521C29.1939 35.0161 29.058 35.077 28.918 35.135Z" stroke="#07345E"/>
</svg>
