<svg width="275px" height="432px" viewBox="0 0 275 432" version="1.1" xmlns="http://www.w3.org/2000/svg" xmlns:xlink="http://www.w3.org/1999/xlink">
    <g id="Page-1" stroke="none" stroke-width="1" fill="none" fill-rule="evenodd">
        <g id="man-walking-texting">
            <circle id="Oval-2" fill="#F8F9D2" cx="230.5" cy="76.5" r="44.5"></circle>
            <circle id="Oval-3" fill="#FBE7FF" cx="118.5" cy="304.5" r="118.5"></circle>
            <path d="M110.939522,421 C110.939522,422.228767 111.307034,429.451925 110.230138,430.664087 C108.290015,432.855941 92.5809993,431.851341 91.8459746,431.145631 C91.11095,430.43992 90.6579697,428.928868 91.3246199,428.497139 C91.9912702,428.06541 98.230433,426.836643 99.076566,426.263772 C99.922699,425.690901 101.085064,422.660496 100.64063,421.03321" id="Shape" fill="#1F161E" fill-rule="nonzero"></path>
            <path d="M215.399017,405 C215.932126,406.162821 219.40156,412.868713 218.961535,414.503657 C218.183027,417.44131 203.679098,423.342845 202.705964,422.984381 C201.73283,422.625918 200.683537,421.393153 201.089715,420.693712 C201.495892,419.99427 206.547728,416.103629 207.063912,415.185612 C207.580096,414.267596 207.300849,410.875306 206.217709,409.520139" id="Shape" fill="#1F161E" fill-rule="nonzero"></path>
            <path d="M175.446613,190 C175.71193,196.340983 176.918693,285.971635 176.918693,285.971635 L218,404.933619 C216.801795,407.744217 205.581463,411.557375 203.981004,410.931846 C202.380545,410.306316 136,289.956172 136,289.956172" id="Shape" fill="#1F161E" fill-rule="nonzero"></path>
            <path d="M98.3468543,190.467343 C94.9702579,192.691166 99.0067475,420.89815 99.0067475,420.89815 C100.369384,422.480486 111.244767,422.24955 113.061615,420.89815 C114.878464,419.54675 132.54989,312.144662 134.366739,306.234426 C136.183587,300.324189 176,190.467343 176,190.467343 C176,190.467343 103.360329,187.165821 98.3468543,190.467343 Z" id="Shape" fill="#FADB93" fill-rule="nonzero"></path>
            <path d="M14.1203785,68 C11.9399316,66.4608715 2.69416089,55.1512534 1.60393747,51.3502013 C0.513714052,47.5491492 -0.30606635,33.2207984 10.477849,36.4776282 C21.2617644,39.7344581 16.3937901,51.2141457 24,58.4506006" id="Shape" fill="#F8CDBA" fill-rule="nonzero"></path>
            <rect id="Rectangle-path" fill="#1F161E" fill-rule="nonzero" transform="translate(14.500000, 41.000000) rotate(-38.600000) translate(-14.500000, -41.000000) " x="8" y="27" width="13" height="28"></rect>
            <path d="M150,58 C152.67234,60.4900155 180,106.606467 180,112.379551 C180,118.152635 173.693617,153.166347 170.068085,160.636393 C166.442553,168.10644 150,58 150,58 Z" id="Shape" fill="#1F161E" fill-rule="nonzero"></path>
            <path d="M133.513728,45 C172.995104,45 178.154505,184.428116 175.369796,190.03503 C172.585086,195.641944 103.548201,194.991371 97.953155,190.03503 C92.3581093,185.078689 97.2014542,45 133.513728,45 Z" id="Shape" fill="#44D1F2" fill-rule="nonzero"></path>
            <path d="M126,50.0225684 C126,52.5619433 140,52.7545856 140,50.0225684 L140,33 L126,33 L126,50.0225684 Z" id="Shape" fill="#F8CDBA" fill-rule="nonzero"></path>
            <path d="M140,43 C140,41.528229 136.571429,36.449343 134,37.3085851 C137.231429,36.177108 138.825714,32.3147726 140,33.1059558 L140,43 Z" id="Shape" fill="#000000" fill-rule="nonzero"></path>
            <circle id="Oval" fill="#F8CDBA" fill-rule="nonzero" cx="127" cy="21" r="18"></circle>
            <ellipse id="Oval" fill="#FA9E9F" fill-rule="nonzero" cx="109" cy="23.5" rx="3" ry="1.5"></ellipse>
            <ellipse id="Oval" fill="#FA9E9F" fill-rule="nonzero" cx="128" cy="23.5" rx="3" ry="1.5"></ellipse>
            <path d="M117,20 C116.377526,20.7276995 113.10954,23.771518 116.552597,25" id="Shape" stroke="#1F161E" stroke-width="0.69" stroke-linecap="round"></path>
            <path d="M122,30 C122.857143,30 124.271429,28.9512195 125,28" id="Shape" stroke="#1F161E" stroke-width="0.69" stroke-linecap="round"></path>
            <path d="M144.891666,10.6745953 C144.891666,4.55788274 136.190159,0 130.132804,0 C120.489425,0 108.737637,2.30435707 106.802049,2.97363725 C103.553025,4.08345628 103,7.48068858 103,8.61592332 C103,13.3771317 104.728204,16.342297 110.120201,17.0878243 C110.489396,15.4083268 111.125037,13.7960096 112.003943,12.3096722 C113.49587,11.7473659 115.142537,11.7203585 116.652812,12.233425 C118.018093,12.6993796 129.42424,17.968902 137.866517,17.968902 C138.989849,19.5192599 141.461181,28.9823733 140.735335,32.9980544 C143.206667,33.1420767 147.760485,25.2547369 147.993792,21.137393 C148.100814,18.2722235 146.819016,15.5263116 144.537384,13.7329515 C144.649718,12.8434019 144.891666,11.1574936 144.891666,10.6745953 Z" id="Shape" fill="#000000" fill-rule="nonzero"></path>
            <circle id="Oval" fill="#F8CDBA" fill-rule="nonzero" cx="138" cy="22" r="4"></circle>
            <path d="M144,82.6303644 C134.15594,97.5174089 80.9327342,121 75.3320999,121 C60.480111,121 16.5082595,72.7 14,67.5477733 C16.8948064,64.4870445 23.0623761,58 24.0244483,58 C24.9865204,58 66.8452491,86.6348178 74.7565746,86.6348178 C82.6679001,86.6348178 120.162944,60.5251012 125.042025,59.3518219" id="Shape" fill="#44D1F2" fill-rule="nonzero"></path>
            <path d="M112,68 C118.356865,63.7315131 123.417098,60.4095563 125,60" id="Shape" stroke="#1F161E" stroke-linecap="round" stroke-linejoin="round"></path>
            <path d="M101,112 C118.03645,103.663476 138.318344,91.8483398 144,83" id="Shape" stroke="#1F161E" stroke-linecap="round" stroke-linejoin="round"></path>
            <path d="M98,133 C98.3502848,129.627435 115.659479,103.983862 119,102 C115.454434,103.992487 102.032547,110.867001 100.759561,111.626043 C100.016273,113.635782 98,133 98,133 Z" id="Shape" fill="#1F161E" fill-rule="nonzero"></path>
        </g>
    </g>
</svg>