<svg width="427" height="420" viewBox="0 0 427 420" fill="none" xmlns="http://www.w3.org/2000/svg">
<path fill-rule="evenodd" clip-rule="evenodd" d="M179.68 103.697C215.249 93.104 244.807 58.3257 281.266 65.2609C318.987 72.4361 345.904 106.379 365.95 139.129C385.601 171.234 401.772 209.818 391.998 246.169C382.715 280.692 343.97 295.604 317.433 319.557C296 338.903 279.067 363.33 251.771 372.743C223.173 382.605 193.08 377.7 163.24 372.73C125.576 366.458 75.4363 373.257 56.3356 340.194C37.0211 306.762 76.7963 268.268 80.698 229.855C84.2933 194.458 56.1541 153.754 78.116 125.762C100.038 97.822 145.644 113.834 179.68 103.697Z" fill="#ECDA9B" fill-opacity="0.13"/>
<g clip-path="url(#clip0)">
<path d="M322.1 183.946C322.671 185.58 328.211 193.232 330.289 196.616C332.368 200.001 335.855 209.956 332.796 211.59C329.736 213.224 324.607 212.028 322.984 206.787C321.36 201.545 315.847 189.732 313.921 187.143C311.994 184.553 322.1 183.946 322.1 183.946Z" fill="#F8CDBA"/>
<path d="M114.144 28.4387C111.459 25.885 89.7205 3 89.5064 3C87.4815 3.4911 86.1524 4.47329 87.6243 6.5716C88.1952 7.38414 91.6383 11.1968 95.6524 15.5006C94.4521 16.5135 93.592 17.8713 93.1888 19.39C92.7855 20.9088 92.8585 22.5149 93.398 23.9906C93.9375 25.4664 94.9173 26.7404 96.2045 27.6399C97.4918 28.5394 99.0243 29.0209 100.594 29.0191C101.217 29.0127 101.837 28.9318 102.441 28.778L105.893 32.8764L111.022 30.7871L110.335 30.0281L114.144 28.4387Z" fill="#F8CDBA"/>
<path d="M147.969 293.389C148.032 294.532 150.084 303.916 149.174 305.095C147.523 307.238 133.26 307.059 132.555 306.425C131.851 305.791 131.378 304.416 131.949 303.988C132.52 303.559 138.122 302.104 138.853 301.532C139.584 300.961 140.503 298.077 140.022 296.577" fill="#1F161E"/>
<path d="M246.823 158.713C253.067 163.106 315.508 347.874 314.491 350.802C313.475 353.731 306.356 355.356 303.787 353.731C301.218 352.106 252.719 264.182 250.115 261.575C247.51 258.968 209.447 219.251 204.247 203.617C199.046 187.982 246.823 158.713 246.823 158.713Z" fill="#172445"/>
<path d="M238.126 148.212C242.077 150.284 253.558 161.606 253.558 173.651C253.558 207.679 222.337 214.546 211.205 214.349C200.072 214.153 154.071 216.073 136.659 210.206C137.408 216.805 143.251 276.343 148.71 293.684C147.39 296.13 140.521 298.291 139.29 297.255C129.407 289.219 100.246 204.322 100.808 198.358C102.075 184.893 230.892 149.962 238.126 148.212Z" fill="#172E68"/>
<path d="M200.215 89.022C199.653 91.4685 213.087 94.7812 213.702 92.1471L217.502 75.7356L204.015 72.6462L200.215 89.022Z" fill="#F8CDBA"/>
<path d="M215.228 85.5397C215.567 84.0753 213.399 78.2715 210.634 78.5304C214.059 78.1375 216.521 74.682 217.502 75.7356L215.228 85.5397Z" fill="black"/>
<path d="M207.556 78.7894C217.488 78.7894 225.539 70.7301 225.539 60.7885C225.539 50.8469 217.488 42.7876 207.556 42.7876C197.625 42.7876 189.573 50.8469 189.573 60.7885C189.573 70.7301 197.625 78.7894 207.556 78.7894Z" fill="#F8CDBA"/>
<path d="M192.22 59.7097C192.415 58.869 191.265 57.8841 189.653 57.51C188.04 57.1359 186.575 57.5141 186.38 58.3548C186.186 59.1955 187.335 60.1803 188.948 60.5544C190.56 60.9286 192.025 60.5504 192.22 59.7097Z" fill="#FA9E9F"/>
<path d="M210.585 63.968C210.78 63.1273 209.63 62.1425 208.018 61.7683C206.405 61.3942 204.94 61.7724 204.746 62.6131C204.551 63.4538 205.7 64.4386 207.313 64.8128C208.926 65.1869 210.391 64.8087 210.585 63.968Z" fill="#FA9E9F"/>
<path d="M197.164 57.5294C196.433 58.1812 192.874 60.8063 195.523 62.8243" stroke="#1F161E" stroke-width="0.69" stroke-miterlimit="10" stroke-linecap="round"/>
<path d="M200.527 68.021C201.419 68.1906 203.016 67.4406 203.961 66.6281" stroke="#1F161E" stroke-width="0.69" stroke-miterlimit="10" stroke-linecap="round"/>
<path d="M216.343 58.1009C216.387 54.0382 202.16 44.6627 195.309 47.5825C198.478 44.6643 202.587 42.9811 206.891 42.8388C211.194 42.6965 215.406 44.1046 218.76 46.8071C222.114 49.5096 224.389 53.3271 225.169 57.5657C225.95 61.8044 225.186 66.1827 223.015 69.905C221.088 68.1817 216.343 61.9314 216.343 58.1009Z" fill="black"/>
<path d="M220.071 66.7084C222.259 66.7084 224.032 64.9335 224.032 62.7439C224.032 60.5544 222.259 58.7795 220.071 58.7795C217.884 58.7795 216.111 60.5544 216.111 62.7439C216.111 64.9335 217.884 66.7084 220.071 66.7084Z" fill="#F8CDBA"/>
<path d="M112.699 27.1083C114.608 28.787 152.483 66.2709 158.879 67.8245C180.43 73.0569 250.168 93.9597 273.949 113.095C298.783 128.399 325.151 182.321 324.197 184.232C323.242 186.143 312.708 190.697 310.558 189.741C308.408 188.786 278.971 147.998 274.422 145.4C269.873 142.801 234.469 125.309 234.469 125.309C236.137 129.381 240.927 146.632 240.204 149.025C239.482 151.418 224.059 161.802 195.942 164.356C193.07 162.677 184.694 114.059 184.694 114.059C178.708 111.38 139.103 90.281 130.379 79.3251C126.998 75.0749 101.424 35.7337 101.424 33.7872C101.424 31.8407 112.699 27.1083 112.699 27.1083Z" fill="#30D2EF"/>
<path d="M203.399 123.416C200.911 122.399 184.845 114.014 184.845 114.014" stroke="#1F161E" stroke-width="0.55" stroke-miterlimit="10" stroke-linecap="round"/>
<path d="M217.975 86.7629C219.67 88.8255 231.677 113.72 234.469 125.613" stroke="#1F161E" stroke-width="0.55" stroke-miterlimit="10" stroke-linecap="round"/>
<path d="M313.145 350.624C314.117 351.517 316.472 355.472 316.588 356.946C317.168 363.999 309.541 374.991 308.31 375C304.742 375 302.895 373.107 302.895 370.893C302.895 368.678 305.571 365.973 305.571 364.491C305.571 363.008 305.241 354.151 304.992 352.838" fill="#1F161E"/>
</g>
<circle cx="347.5" cy="26.5" r="26.5" fill="#67A2AE" fill-opacity="0.24"/>
<circle cx="69.5" cy="152.5" r="19.5" fill="#F8CDBA"/>
<defs>
<clipPath id="clip0">
<rect width="247" height="372" fill="white" transform="translate(87 3)"/>
</clipPath>
</defs>
</svg>
